PathFileType	4	(X/Y/Z)	D:\TRACE\spotREDO_2-26-24\spot_baseline_4-platform.trc
DataRate	CameraRate	NumFrames	NumMarkers	Units	OrigDataRate	OrigDataStartFrame	OrigNumFrames
100.00	100.00	      68	5	mm	100.00	2626	      7000
Frame#	Time	Left_Front			Right_Front			Left_Aft			Right_Aft			Post			
		X1	Y1	Z1	X2	Y2	Z2	X3	Y3	Z3	X4	Y4	Z4	X5	Y5	Z5	

2626	26.250	-696.85950	-3.88675	-575.65771	718.21094	4.98129	-490.78683	-768.15753	4.93222	643.57184	801.25519	11.41671	647.82349	4.45928	741.41742	-982.91534	
2627	26.260	-696.83966	-3.92546	-575.67145	718.26324	4.95016	-490.73273	-768.18829	4.92329	643.52856	801.31598	11.25289	647.61273	4.38577	741.47742	-982.74268	
2628	26.270	-696.87085	-3.91126	-575.65894	718.12946	5.11146	-490.93112	-768.16656	4.95979	643.54449	801.27966	11.49956	647.82831	4.41156	741.45074	-982.74939	
2629	26.280	-696.89624	-3.89470	-575.66260	718.05768	5.07793	-490.94965	-768.19104	4.84942	643.50537	801.28687	11.43672	647.78925	4.33371	741.45905	-982.65558	
2630	26.290	-696.86975	-3.96024	-575.65564	718.02802	4.99748	-490.95700	-768.15155	4.81439	643.52856	801.23309	11.39265	647.79089	4.28597	741.39362	-982.65308	
2631	26.300	-696.90302	-3.90668	-575.67352	718.19434	4.91049	-490.78345	-768.13062	4.87240	643.51343	801.25507	11.46847	647.83099	4.34114	741.40912	-982.67859	
2632	26.310	-696.84058	-3.92482	-575.66351	718.27783	4.93071	-490.75272	-768.15802	4.91532	643.52704	801.24365	11.40796	647.81897	4.37714	741.46082	-982.68036	
2633	26.320	-696.86804	-3.89004	-575.65710	718.27649	4.96099	-490.74860	-768.09985	5.09681	643.64484	801.20966	11.41341	647.83313	4.41119	741.45813	-982.79633	
2634	26.330	-696.85889	-3.88328	-575.64374	718.27417	4.96906	-490.73862	-768.20868	4.95595	643.54236	801.09491	11.25045	647.74921	4.45695	741.41455	-982.86694	
2635	26.340	-696.91803	-3.86006	-575.64929	718.24414	4.94351	-490.73337	-768.16089	4.83324	643.50885	801.06860	10.79198	647.13226	4.43391	741.40729	-982.98242	
2636	26.350	-696.87927	-3.92158	-575.65875	718.18542	4.84699	-490.82907	-768.17566	4.82760	643.49261	801.14349	10.82128	647.11469	4.44324	741.41779	-982.98315	
2637	26.360	-696.86890	-3.89900	-575.62860	718.20453	4.90628	-490.82150	-768.15839	4.85703	643.54846	801.06006	11.28632	647.72430	4.41068	741.40948	-982.93054	
2638	26.370	-696.85449	-3.89976	-575.66711	718.27148	4.95543	-490.76791	-768.18011	4.95133	643.53540	801.64398	11.77911	648.05231	4.47500	741.36255	-982.89215	
2639	26.380	-696.90778	-3.85316	-575.65002	718.24976	4.95428	-490.76407	-768.17438	4.98602	643.57568	801.57214	11.83601	648.06818	4.35328	741.47998	-982.73657	
2640	26.390	-696.93481	-3.91523	-575.67413	718.24042	4.92183	-490.78818	-768.20679	4.94178	643.51874	801.64960	11.78720	648.04614	4.37808	741.45349	-982.74426	
2641	26.400	-696.98639	-3.89428	-575.65149	718.18030	4.87937	-490.79633	-768.17621	4.84347	643.49945	801.65881	11.80324	648.06604	4.33277	741.41296	-982.74188	
2642	26.410	-696.95892	-3.88666	-575.64972	718.14368	4.82541	-490.81186	-768.15588	4.79780	643.49335	801.09723	11.33809	647.71008	4.26325	741.43140	-982.70642	
2643	26.420	-696.94812	-3.88654	-575.63409	718.24457	4.92203	-490.78583	-768.18451	4.90359	643.53564	801.13507	11.31853	647.73743	4.29647	741.49707	-982.73352	
2644	26.430	-696.94751	-3.79213	-575.64258	718.28766	4.98536	-490.71014	-768.11646	5.16092	643.68976	801.30432	11.10883	647.49994	4.35439	741.49695	-982.72540	
2645	26.440	-697.06134	-3.82946	-575.60303	718.31854	5.00666	-490.71954	-768.17175	4.96394	643.55707	801.26947	11.40579	647.88068	4.37583	741.45789	-982.84174	
2646	26.450	-696.99335	-3.85036	-575.66577	718.23456	4.94422	-490.80591	-768.19751	4.85900	643.53918	801.11230	11.33146	647.81708	4.40321	741.45325	-982.85303	
2647	26.460	-696.97644	-3.84355	-575.67169	718.06006	5.06493	-490.97983	-768.14862	4.78664	643.50470	801.21759	11.41615	647.83356	4.42174	741.45990	-982.87048	
2648	26.470	-696.99933	-3.86638	-575.66266	718.15210	4.84881	-490.83667	-768.17371	4.86965	643.53729	801.26483	11.47940	647.89026	4.38532	741.45184	-982.86401	
2649	26.480	-696.96210	-3.82343	-575.66840	718.13812	5.12377	-490.94156	-768.16272	4.93391	643.55341	801.29523	11.48102	647.86847	4.25860	741.48047	-982.88013	
2650	26.490	-696.97571	-3.81542	-575.66632	718.29028	4.93756	-490.72070	-768.19611	4.96378	643.55341	801.30115	11.49369	647.88495	4.27174	741.45288	-982.88202	
2651	26.500	-696.95374	-3.85373	-575.68018	718.26221	4.91970	-490.74380	-768.11072	5.15433	643.66986	801.26935	11.40620	647.82745	4.11131	741.46521	-982.87933	
2652	26.510	-697.03400	-3.81537	-575.66974	718.21149	4.86295	-490.75519	-768.19128	4.81633	643.48724	801.33691	11.46232	647.82568	3.96115	741.51025	-982.88684	
2653	26.520	-696.94934	-3.86878	-575.68408	718.06561	5.03012	-490.96042	-768.12708	4.80630	643.49664	801.27936	11.41759	647.84100	4.30533	741.44379	-982.84106	
2654	26.530	-696.98962	-3.81404	-575.66113	718.08038	5.15654	-490.96274	-768.18640	4.87312	643.53973	801.30988	11.49466	647.87549	4.29374	741.45551	-982.84802	
2655	26.540	-696.99072	-3.79112	-575.64526	718.29340	4.98251	-490.74609	-768.16083	4.96163	643.53821	801.28937	11.41720	647.85712	4.37406	741.44604	-982.82477	
2656	26.550	-696.97198	-3.84762	-575.65753	718.28979	4.96359	-490.71338	-768.19080	4.96296	643.55707	801.20441	11.14418	647.56799	4.31966	741.49243	-982.74615	
2657	26.560	-696.94141	-3.84579	-575.66766	718.24323	4.91571	-490.75641	-768.19861	4.88700	643.54724	801.25055	11.43536	647.82623	4.25802	741.50623	-982.71698	
2658	26.570	-696.89752	-3.88869	-575.66345	718.04730	5.06717	-490.95697	-768.18134	4.84291	643.49890	801.24908	11.43025	647.83331	4.26515	741.45105	-982.75201	
2659	26.580	-696.91138	-3.86801	-575.67145	718.19598	4.87102	-490.77676	-768.15222	4.83901	643.52771	801.30676	11.45310	647.84692	4.27469	741.46747	-982.70319	
2660	26.590	-696.89063	-3.89436	-575.64526	718.26740	4.91588	-490.74850	-768.20184	4.88892	643.54376	801.27789	11.41986	647.84546	4.24053	741.46680	-982.74768	
2661	26.600	-696.88245	-3.87010	-575.67114	718.29309	4.92798	-490.76099	-768.15662	4.97683	643.52106	801.33740	11.50141	647.82324	4.34368	741.44775	-982.77008	
2662	26.610	-696.88684	-3.88049	-575.66516	718.25842	4.96828	-490.74957	-768.20532	4.92205	643.53827	801.19989	11.40842	647.82410	4.32700	741.43848	-982.84198	
2663	26.620	-696.89728	-3.86703	-575.66895	718.19495	4.88422	-490.79974	-768.21570	4.89614	643.53284	801.25507	11.42141	647.80829	4.38295	741.43683	-982.91479	
2664	26.630	-696.89923	-3.88093	-575.66333	718.05292	5.04271	-490.94855	-768.14563	4.84023	643.51953	801.21155	11.38353	647.80591	4.36909	741.42542	-982.98328	
2665	26.640	-696.92426	-3.88458	-575.64233	718.22729	4.92970	-490.77213	-768.17249	4.83352	643.56299	801.34332	11.23138	647.63043	4.38866	741.40863	-982.96454	
2666	26.650	-696.88831	-3.91867	-575.64117	718.25830	4.98538	-490.72562	-768.14795	4.92500	643.54077	801.25507	11.38680	647.82477	4.40235	741.41217	-982.93719	
2667	26.660	-696.89783	-3.84893	-575.64343	718.39948	5.12175	-490.63281	-768.23682	4.94489	643.57202	801.26117	11.42176	647.85950	4.37312	741.47931	-982.80634	
2668	26.670	-696.94800	-3.85199	-575.65558	718.21179	5.18612	-490.87234	-768.19568	4.91494	643.54218	801.25061	11.37284	647.81934	4.29510	741.46643	-982.77350	
2669	26.680	-696.92548	-3.88913	-575.65503	718.26825	4.93596	-490.70325	-768.16827	4.86135	643.51868	801.19916	11.41216	647.81757	4.23353	741.47980	-982.71838	
2670	26.690	-696.93286	-3.91277	-575.67249	718.31183	4.91312	-490.69821	-768.14172	4.83748	643.51801	801.24756	11.42213	647.83185	4.18022	741.46375	-982.67059	
2671	26.700	-696.97473	-3.81950	-575.65564	718.32422	4.94553	-490.67441	-768.17743	4.90675	643.53699	801.23669	11.41182	647.85913	4.21581	741.49487	-982.66522	
2672	26.710	-696.95892	-3.84727	-575.65533	718.28851	4.97358	-490.75699	-768.13092	4.93803	643.55206	801.28870	11.42954	647.82275	4.26633	741.48163	-982.69342	
2673	26.720	-697.00018	-3.81788	-575.66791	718.15039	4.89788	-490.81494	-768.18744	4.91194	643.53021	801.31537	11.43245	647.82294	4.27247	741.47351	-982.75336	
2674	26.730	-696.96259	-3.82969	-575.67377	718.12683	4.86276	-490.85870	-768.11292	4.85442	643.52948	801.30756	11.43924	647.83899	4.36619	741.46271	-982.82770	
2675	26.740	-696.95825	-3.82673	-575.66174	718.09424	4.86218	-490.86478	-767.89197	4.26911	643.66553	801.31244	11.42329	647.83411	4.36851	741.46088	-982.84564	
2676	26.750	-696.96570	-3.81384	-575.65887	718.09821	4.86437	-490.88455	-768.06561	4.53999	643.66650	801.29010	11.49887	647.84821	4.34328	741.45581	-982.87567	
2677	26.760	-696.97156	-3.79347	-575.66644	718.13043	4.93141	-490.86688	-767.99597	4.59917	643.63605	801.22766	11.06025	647.48950	4.40983	741.45703	-982.87036	
2678	26.770	-696.98889	-3.81027	-575.66022	718.11365	4.98189	-490.85959	-768.01788	4.68798	643.58563	801.19757	10.83200	647.40985	4.37877	741.45483	-982.85791	
2679	26.780	-696.96222	-3.87282	-575.65845	718.06525	4.85597	-490.87262	-768.12909	4.79718	643.58234	801.22400	11.46531	647.79022	4.31607	741.42291	-982.79187	
2680	26.790	-696.94281	-3.91046	-575.69519	718.12555	4.85272	-490.89227	-768.09009	4.91739	643.59125	801.29614	11.45494	647.80170	4.22740	741.35327	-982.78699	
2681	26.800	-696.95892	-3.88364	-575.69055	718.02661	4.92898	-491.03168	-768.06866	4.89089	643.59448	801.38782	11.49686	647.80469	4.34013	741.35803	-982.79077	
2682	26.810	-696.99146	-3.84170	-575.65112	718.08887	4.79659	-490.90915	-768.15845	4.74864	643.52435	801.30554	11.05113	647.50537	4.32374	741.39941	-982.80206	
2683	26.820	-696.90088	-3.85969	-575.69525	718.13574	4.96932	-490.88025	-768.13947	4.71498	643.56055	801.23389	10.85151	647.45129	4.45015	741.31067	-982.94244	
2684	26.830	-697.01410	-3.80745	-575.66998	718.01007	5.08010	-491.00427	-768.15491	4.79459	643.57471	801.18018	10.93701	647.44000	3.81422	741.34924	-982.99841	
2685	26.840	-696.97705	-3.82831	-575.67920	718.09161	4.88054	-490.86792	-768.10229	4.85869	643.58197	801.12549	11.27783	647.74512	4.40677	741.34888	-983.06793	
2686	26.850	-697.01691	-3.81754	-575.64050	718.10815	4.91934	-490.87238	-768.06927	4.92112	643.64667	801.03607	11.26880	647.70752	4.36269	741.39740	-983.05811	
2687	26.860	-696.92920	-3.84492	-575.67102	718.10834	4.92834	-490.92117	-768.14526	4.80996	643.55145	801.19464	10.90096	647.31268	4.44528	741.36078	-983.05426	
2688	26.870	-696.93481	-3.86442	-575.67938	718.11047	4.90619	-490.82828	-768.13519	4.70025	643.55048	801.16797	10.97888	647.35620	3.82422	741.37079	-982.98969	
2689	26.880	-696.97101	-3.87538	-575.68597	718.09692	4.91778	-490.89929	-768.16168	4.79711	643.57605	801.33405	10.99764	647.54193	4.40359	741.40308	-982.91144	
2690	26.890	-697.00861	-3.86748	-575.65613	718.08246	4.81373	-490.87460	-768.12622	4.83111	643.57739	801.82208	12.01980	648.29016	4.26965	741.46808	-982.76733	
2691	26.900	-696.92853	-3.92817	-575.68201	718.02136	4.92866	-491.01837	-768.12207	4.84191	643.54706	801.73145	11.83138	648.09784	4.28594	741.40063	-982.74060	
2692	26.910	-696.97980	-3.87360	-575.65778	718.02771	5.07410	-491.07822	-768.10468	4.78849	643.55463	801.61041	11.75957	648.04779	4.26412	741.38586	-982.72571	
2693	26.920	-696.89417	-3.93360	-575.67511	718.10706	4.83884	-490.87292	-768.13019	4.79477	643.54730	801.65918	11.77630	648.02625	4.28997	741.37762	-982.75134	
